<svg xmlns="http://www.w3.org/2000/svg" viewBox="0 0 600 800" role="img" aria-label="Chanderi Cotton">
  <defs>
    <linearGradient id="bg" x1="0" y1="0" x2="1" y2="1">
      <stop offset="0" stop-color="#1F5C4A"/>
      <stop offset="1" stop-color="#0F3528"/>
    </linearGradient>
  </defs>
  <rect width="600" height="800" fill="url(#bg)"/>
  <rect x="28" y="28" width="544" height="744" fill="none" stroke="#C9A24B" stroke-width="2" opacity="0.65"/>
  <rect x="40" y="40" width="520" height="720" fill="none" stroke="#C9A24B" stroke-width="1" opacity="0.4"/>
  
    <g transform="translate(300,300)" opacity="0.5">
      <line x1="0" y1="0" x2="130.0" y2="0.0" stroke="#C9A24B" stroke-width="1"/><line x1="0" y1="0" x2="120.1" y2="49.7" stroke="#C9A24B" stroke-width="1"/><line x1="0" y1="0" x2="91.9" y2="91.9" stroke="#C9A24B" stroke-width="1"/><line x1="0" y1="0" x2="49.7" y2="120.1" stroke="#C9A24B" stroke-width="1"/><line x1="0" y1="0" x2="0.0" y2="130.0" stroke="#C9A24B" stroke-width="1"/><line x1="0" y1="0" x2="-49.7" y2="120.1" stroke="#C9A24B" stroke-width="1"/><line x1="0" y1="0" x2="-91.9" y2="91.9" stroke="#C9A24B" stroke-width="1"/><line x1="0" y1="0" x2="-120.1" y2="49.7" stroke="#C9A24B" stroke-width="1"/><line x1="0" y1="0" x2="-130.0" y2="0.0" stroke="#C9A24B" stroke-width="1"/><line x1="0" y1="0" x2="-120.1" y2="-49.7" stroke="#C9A24B" stroke-width="1"/><line x1="0" y1="0" x2="-91.9" y2="-91.9" stroke="#C9A24B" stroke-width="1"/><line x1="0" y1="0" x2="-49.7" y2="-120.1" stroke="#C9A24B" stroke-width="1"/><line x1="0" y1="0" x2="-0.0" y2="-130.0" stroke="#C9A24B" stroke-width="1"/><line x1="0" y1="0" x2="49.7" y2="-120.1" stroke="#C9A24B" stroke-width="1"/><line x1="0" y1="0" x2="91.9" y2="-91.9" stroke="#C9A24B" stroke-width="1"/><line x1="0" y1="0" x2="120.1" y2="-49.7" stroke="#C9A24B" stroke-width="1"/>
      <circle r="120" fill="none" stroke="#C9A24B" stroke-width="1.5"/>
      <circle r="90" fill="none" stroke="#C9A24B" stroke-width="1"/>
    </g>
  <text x="300" y="600" text-anchor="middle" font-family="Georgia, 'Times New Roman', serif"
        font-size="36" fill="#FBF7F0">Chanderi Cotton</text>
  <text x="300" y="648" text-anchor="middle" font-family="Georgia, serif" font-size="16"
        letter-spacing="6" fill="#C9A24B">KUUBERA STORE</text>
  <text x="300" y="700" text-anchor="middle" font-family="Georgia, serif" font-size="13"
        letter-spacing="3" fill="#FBF7F0" opacity="0.7">REPLACE WITH YOUR PHOTO</text>
</svg>